<mxfile host="app.diagrams.net" modified="2024-01-06T05:58:34.958Z" agent="Mozilla/5.0 (Windows NT 10.0; Win64; x64) AppleWebKit/537.36 (KHTML, like Gecko) Chrome/119.0.0.0 Safari/537.36 OPR/105.0.0.0" etag="lC9bJK5VlyixxwyQSMQ4" version="22.1.17" type="device">
  <diagram name="Página-1" id="QOS-IbCUC63r9xnnI7oE">
    <mxGraphModel dx="1845" dy="831" grid="1" gridSize="10" guides="1" tooltips="1" connect="1" arrows="1" fold="1" page="1" pageScale="1" pageWidth="827" pageHeight="1169" math="0" shadow="0">
      <root>
        <mxCell id="0" />
        <mxCell id="1" parent="0" />
        <mxCell id="OZ8c_FMY5WY2IVmpVz3e-1" value="&lt;hr&gt;" style="rounded=0;whiteSpace=wrap;html=1;" parent="1" vertex="1">
          <mxGeometry x="49" y="80" width="750" height="370" as="geometry" />
        </mxCell>
        <mxCell id="OZ8c_FMY5WY2IVmpVz3e-2" value="" style="rounded=0;whiteSpace=wrap;html=1;" parent="1" vertex="1">
          <mxGeometry x="50" y="460" width="750" height="370" as="geometry" />
        </mxCell>
        <mxCell id="OZ8c_FMY5WY2IVmpVz3e-3" value="&lt;br&gt;&amp;nbsp;CADASTROS&amp;nbsp; &amp;nbsp; &amp;nbsp; &amp;nbsp; &amp;nbsp;&amp;nbsp;" style="rounded=1;whiteSpace=wrap;html=1;" parent="1" vertex="1">
          <mxGeometry x="100" y="80" width="100" height="30" as="geometry" />
        </mxCell>
        <mxCell id="OZ8c_FMY5WY2IVmpVz3e-4" value="INCLUIR" style="rounded=1;whiteSpace=wrap;html=1;" parent="1" vertex="1">
          <mxGeometry x="230" y="80" width="120" height="30" as="geometry" />
        </mxCell>
        <mxCell id="OZ8c_FMY5WY2IVmpVz3e-5" value="Buscar" style="rounded=1;whiteSpace=wrap;html=1;" parent="1" vertex="1">
          <mxGeometry x="380" y="80" width="120" height="30" as="geometry" />
        </mxCell>
        <mxCell id="OZ8c_FMY5WY2IVmpVz3e-6" value="Relatorio" style="rounded=1;whiteSpace=wrap;html=1;" parent="1" vertex="1">
          <mxGeometry x="530" y="80" width="120" height="30" as="geometry" />
        </mxCell>
        <mxCell id="OZ8c_FMY5WY2IVmpVz3e-7" value="" style="endArrow=classic;startArrow=classic;html=1;rounded=0;exitX=1;exitY=0;exitDx=0;exitDy=0;entryX=0.042;entryY=1.233;entryDx=0;entryDy=0;entryPerimeter=0;" parent="1" source="OZ8c_FMY5WY2IVmpVz3e-10" target="OZ8c_FMY5WY2IVmpVz3e-4" edge="1">
          <mxGeometry width="50" height="50" relative="1" as="geometry">
            <mxPoint x="170" y="140" as="sourcePoint" />
            <mxPoint x="260" y="110" as="targetPoint" />
          </mxGeometry>
        </mxCell>
        <mxCell id="OZ8c_FMY5WY2IVmpVz3e-10" value="" style="rounded=1;whiteSpace=wrap;html=1;" parent="1" vertex="1">
          <mxGeometry x="120" y="140" width="70" height="20" as="geometry" />
        </mxCell>
        <mxCell id="OZ8c_FMY5WY2IVmpVz3e-11" value="CODIGO" style="text;html=1;strokeColor=none;fillColor=none;align=center;verticalAlign=middle;whiteSpace=wrap;rounded=0;" parent="1" vertex="1">
          <mxGeometry x="50" y="140" width="65" height="20" as="geometry" />
        </mxCell>
        <mxCell id="OZ8c_FMY5WY2IVmpVz3e-12" value="DADOS DA EMPRESA" style="text;html=1;strokeColor=none;fillColor=none;align=center;verticalAlign=middle;whiteSpace=wrap;rounded=0;" parent="1" vertex="1">
          <mxGeometry x="52.5" y="110" width="137.5" height="20" as="geometry" />
        </mxCell>
        <mxCell id="OZ8c_FMY5WY2IVmpVz3e-14" value="" style="rounded=1;whiteSpace=wrap;html=1;" parent="1" vertex="1">
          <mxGeometry x="130" y="175" width="289" height="20" as="geometry" />
        </mxCell>
        <mxCell id="OZ8c_FMY5WY2IVmpVz3e-15" value="Razão Social" style="text;html=1;strokeColor=none;fillColor=none;align=center;verticalAlign=middle;whiteSpace=wrap;rounded=0;" parent="1" vertex="1">
          <mxGeometry x="45" y="170" width="85" height="30" as="geometry" />
        </mxCell>
        <mxCell id="OZ8c_FMY5WY2IVmpVz3e-16" value="" style="rounded=1;whiteSpace=wrap;html=1;" parent="1" vertex="1">
          <mxGeometry x="105" y="215" width="210" height="20" as="geometry" />
        </mxCell>
        <mxCell id="OZ8c_FMY5WY2IVmpVz3e-18" value="CNPJ" style="text;html=1;strokeColor=none;fillColor=none;align=center;verticalAlign=middle;whiteSpace=wrap;rounded=0;" parent="1" vertex="1">
          <mxGeometry x="45" y="210" width="60" height="30" as="geometry" />
        </mxCell>
        <mxCell id="OZ8c_FMY5WY2IVmpVz3e-19" value="DADOS DO RELOGIO" style="text;html=1;strokeColor=none;fillColor=none;align=center;verticalAlign=middle;whiteSpace=wrap;rounded=0;" parent="1" vertex="1">
          <mxGeometry x="50" y="250" width="137.5" height="20" as="geometry" />
        </mxCell>
        <mxCell id="OZ8c_FMY5WY2IVmpVz3e-20" value="MODELO" style="text;html=1;strokeColor=none;fillColor=none;align=center;verticalAlign=middle;whiteSpace=wrap;rounded=0;" parent="1" vertex="1">
          <mxGeometry x="54" y="280" width="65" height="20" as="geometry" />
        </mxCell>
        <mxCell id="OZ8c_FMY5WY2IVmpVz3e-21" value="SERIAL" style="text;html=1;strokeColor=none;fillColor=none;align=center;verticalAlign=middle;whiteSpace=wrap;rounded=0;" parent="1" vertex="1">
          <mxGeometry x="47.5" y="320" width="65" height="20" as="geometry" />
        </mxCell>
        <mxCell id="OZ8c_FMY5WY2IVmpVz3e-22" value="" style="rounded=1;whiteSpace=wrap;html=1;" parent="1" vertex="1">
          <mxGeometry x="119" y="280" width="210" height="20" as="geometry" />
        </mxCell>
        <mxCell id="OZ8c_FMY5WY2IVmpVz3e-23" value="" style="rounded=1;whiteSpace=wrap;html=1;" parent="1" vertex="1">
          <mxGeometry x="119" y="320" width="221" height="20" as="geometry" />
        </mxCell>
        <mxCell id="OZ8c_FMY5WY2IVmpVz3e-24" value="INICO DA MANUTENÇÃO" style="text;html=1;strokeColor=none;fillColor=none;align=center;verticalAlign=middle;whiteSpace=wrap;rounded=0;" parent="1" vertex="1">
          <mxGeometry x="49" y="350" width="91" height="40" as="geometry" />
        </mxCell>
        <mxCell id="OZ8c_FMY5WY2IVmpVz3e-25" value="" style="rounded=1;whiteSpace=wrap;html=1;" parent="1" vertex="1">
          <mxGeometry x="150" y="360" width="90" height="20" as="geometry" />
        </mxCell>
        <mxCell id="OZ8c_FMY5WY2IVmpVz3e-26" value="SALVAR&amp;nbsp;" style="rounded=1;whiteSpace=wrap;html=1;" parent="1" vertex="1">
          <mxGeometry x="130" y="420" width="90" height="30" as="geometry" />
        </mxCell>
        <mxCell id="OZ8c_FMY5WY2IVmpVz3e-30" value="" style="rounded=0;whiteSpace=wrap;html=1;" parent="1" vertex="1">
          <mxGeometry x="465" y="170" width="320" height="185" as="geometry" />
        </mxCell>
        <mxCell id="OZ8c_FMY5WY2IVmpVz3e-31" value="OBSERVAÇÕES" style="text;html=1;strokeColor=none;fillColor=none;align=center;verticalAlign=middle;whiteSpace=wrap;rounded=0;" parent="1" vertex="1">
          <mxGeometry x="570" y="140" width="110" height="30" as="geometry" />
        </mxCell>
        <mxCell id="OZ8c_FMY5WY2IVmpVz3e-32" value="LIMPAR" style="rounded=1;whiteSpace=wrap;html=1;" parent="1" vertex="1">
          <mxGeometry x="250" y="420" width="90" height="30" as="geometry" />
        </mxCell>
      </root>
    </mxGraphModel>
  </diagram>
</mxfile>
